PathFileType	4	(X/Y/Z)	Gait_media_markers.trc
DataRate	CameraRate	NumFrames	NumMarkers	Units	OrigDataRate	OrigDataStartFrame	OrigNumFrames
100	100	10	38	m	100	66	87
Frame#	Time	RASI			RPSI			LPSI			LASI			RTROCH			RTHI			RTHI2			RTHI3			RTHI4			RKNE			RKNEM			RTIB			RTIB2			RTIB3			RTIB4			RANK			RANKM			RHEE			RTOE			RTOEL			RTOEM			LTROCH			LTHI			LTHI2			LTHI3			LTHI4			LKNE			LKNEM			LTIB			LTIB2			LTIB3			LTIB4			LANK			LANKM			LHEE			LTOE			LTOEL			LTOEM
		X1	Y1	Z1	X2	Y2	Z2	X3	Y3	Z3	X4	Y4	Z4	X5	Y5	Z5	X6	Y6	Z6	X7	Y7	Z7	X8	Y8	Z8	X9	Y9	Z9	X10	Y10	Z10	X11	Y11	Z11	X12	Y12	Z12	X13	Y13	Z13	X14	Y14	Z14	X15	Y15	Z15	X16	Y16	Z16	X17	Y17	Z17	X18	Y18	Z18	X19	Y19	Z19	X20	Y20	Z20	X21	Y21	Z21	X22	Y22	Z22	X23	Y23	Z23	X24	Y24	Z24	X25	Y25	Z25	X26	Y26	Z26	X27	Y27	Z27	X28	Y28	Z28	X29	Y29	Z29	X30	Y30	Z30	X31	Y31	Z31	X32	Y32	Z32	X33	Y33	Z33	X34	Y34	Z34	X35	Y35	Z35	X36	Y36	Z36	X37	Y37	Z37	X38	Y38	Z38

66	0.650000	-0.312674	0.952161	-0.011223	-0.250309	0.996328	-0.190790	-0.153844	0.986242	-0.185988	-0.085776	0.949949	-0.002316	-0.378105	0.878109	-0.071641	-0.391224	0.754991	-0.041523	-0.370155	0.774219	0.019287	-0.362115	0.697177	0.050918	-0.383015	0.674123	-0.005894	-0.350475	0.537010	0.050287	-0.236227	0.533601	0.030010	-0.377310	0.406981	0.070019	-0.345882	0.429400	0.122910	-0.346222	0.348639	0.159050	-0.378801	0.331867	0.102299	-0.335931	0.124023	0.193681	-0.263776	0.147973	0.216721	-0.292724	0.048297	0.169144	-0.310154	0.163115	0.374027	-0.364148	0.109548	0.348944	-0.250547	0.137217	0.366488	-0.034818	0.886132	-0.086617	-0.040252	0.678693	-0.102983	-0.065951	0.666869	-0.049970	-0.083562	0.590304	-0.077766	-0.057399	0.598426	-0.134751	-0.080484	0.513561	-0.145519	-0.186718	0.540424	-0.162054	-0.063087	0.307996	-0.240323	-0.103332	0.299208	-0.190671	-0.113034	0.218741	-0.225462	-0.073666	0.232053	-0.272026	-0.103740	0.108405	-0.318305	-0.184366	0.129665	-0.306250	-0.138757	0.067897	-0.394020	-0.158044	0.054024	-0.158548	-0.097978	0.043106	-0.195742	-0.206903	0.049341	-0.186961
67	0.660000	-0.313163	0.949901	-0.000386	-0.251623	0.994397	-0.179034	-0.155246	0.984433	-0.174583	-0.086278	0.948167	0.008728	-0.378941	0.876337	-0.059575	-0.391134	0.753678	-0.030207	-0.370837	0.772883	0.031083	-0.363259	0.695999	0.063000	-0.383063	0.672713	0.006155	-0.350106	0.535719	0.062030	-0.236306	0.532737	0.044347	-0.375923	0.405066	0.082206	-0.345620	0.428044	0.135507	-0.345713	0.347315	0.171711	-0.377209	0.330025	0.114601	-0.335304	0.124808	0.203205	-0.262055	0.147339	0.230377	-0.289204	0.047139	0.182925	-0.310452	0.162916	0.387126	-0.363648	0.108209	0.361239	-0.250741	0.137274	0.380129	-0.035414	0.884742	-0.075985	-0.041105	0.677893	-0.094303	-0.067078	0.665646	-0.040970	-0.084563	0.589393	-0.069491	-0.058344	0.598030	-0.126719	-0.081261	0.513077	-0.138163	-0.187398	0.539831	-0.153820	-0.063640	0.309032	-0.236375	-0.103731	0.299397	-0.186739	-0.113175	0.219454	-0.222621	-0.074250	0.233376	-0.269060	-0.104016	0.110192	-0.317088	-0.184602	0.131095	-0.304443	-0.139160	0.071079	-0.393325	-0.157543	0.053689	-0.158046	-0.098159	0.043298	-0.195762	-0.207436	0.049109	-0.186845
68	0.670000	-0.313896	0.948979	0.012555	-0.253042	0.992549	-0.167181	-0.156454	0.982666	-0.162975	-0.086543	0.946377	0.019996	-0.379764	0.874883	-0.047296	-0.391201	0.752962	-0.018467	-0.371370	0.771372	0.043907	-0.364505	0.695431	0.076272	-0.383489	0.671820	0.019114	-0.349191	0.534819	0.075785	-0.235817	0.533014	0.059903	-0.374607	0.403965	0.094726	-0.345009	0.426186	0.148629	-0.344483	0.345219	0.184289	-0.375773	0.328151	0.126394	-0.331423	0.120148	0.216690	-0.260003	0.144934	0.241289	-0.286373	0.044513	0.193692	-0.310700	0.159928	0.397649	-0.363780	0.105569	0.370484	-0.251138	0.134186	0.391306	-0.036090	0.883452	-0.065293	-0.041910	0.677194	-0.085452	-0.066767	0.664423	-0.032284	-0.084436	0.588159	-0.061113	-0.059047	0.597557	-0.118341	-0.082085	0.512543	-0.130702	-0.188283	0.539457	-0.145102	-0.064207	0.309866	-0.231965	-0.103936	0.299454	-0.182230	-0.114253	0.219247	-0.220618	-0.074705	0.234842	-0.265864	-0.104175	0.112134	-0.315559	-0.184895	0.132723	-0.302705	-0.139087	0.073789	-0.391996	-0.157716	0.053069	-0.157913	-0.098252	0.043389	-0.195517	-0.207631	0.049161	-0.186268
69	0.680000	-0.314403	0.946937	0.023745	-0.253989	0.991076	-0.155305	-0.157513	0.981225	-0.151158	-0.086826	0.944780	0.031541	-0.380690	0.873616	-0.034882	-0.391310	0.750887	-0.003839	-0.372885	0.771552	0.056733	-0.365660	0.695267	0.090273	-0.383218	0.669940	0.034557	-0.348259	0.534220	0.089921	-0.235099	0.533569	0.076196	-0.373478	0.402855	0.108260	-0.343385	0.424023	0.162725	-0.342907	0.342616	0.196688	-0.373903	0.326348	0.138552	-0.329693	0.116877	0.224139	-0.257546	0.140606	0.249929	-0.285487	0.041082	0.201020	-0.310714	0.154890	0.405667	-0.364110	0.101755	0.376827	-0.254794	0.126465	0.401619	-0.036773	0.882212	-0.054359	-0.042633	0.676463	-0.076359	-0.067154	0.663122	-0.022927	-0.084726	0.587360	-0.052416	-0.059880	0.596882	-0.109501	-0.083062	0.511874	-0.122717	-0.189251	0.538833	-0.136100	-0.064736	0.310797	-0.227019	-0.104194	0.299098	-0.177416	-0.113555	0.222444	-0.216585	-0.075057	0.236400	-0.262261	-0.104086	0.114605	-0.314146	-0.185406	0.135305	-0.301528	-0.139110	0.077253	-0.390793	-0.157951	0.052491	-0.157777	-0.098344	0.043432	-0.195260	-0.207770	0.049333	-0.185557
70	0.690000	-0.315047	0.945842	0.036214	-0.255114	0.989618	-0.143239	-0.158701	0.979865	-0.139246	-0.087091	0.943227	0.043150	-0.381516	0.872466	-0.022175	-0.392424	0.750527	0.008526	-0.373895	0.770972	0.070322	-0.366616	0.695446	0.104919	-0.383424	0.669096	0.049551	-0.346849	0.534008	0.105221	-0.234752	0.534855	0.092743	-0.372698	0.401837	0.120583	-0.341343	0.421734	0.176993	-0.340728	0.339380	0.209037	-0.372607	0.324605	0.150222	-0.330304	0.115171	0.227095	-0.255761	0.135674	0.255828	-0.284408	0.037093	0.204674	-0.310401	0.147843	0.411623	-0.364365	0.096492	0.380883	-0.254984	0.118568	0.407384	-0.037283	0.881280	-0.043499	-0.043328	0.675815	-0.066959	-0.067981	0.662053	-0.013135	-0.084979	0.586423	-0.043175	-0.060652	0.596373	-0.100381	-0.083672	0.511508	-0.114173	-0.189300	0.538087	-0.125925	-0.065307	0.311955	-0.221838	-0.104519	0.299446	-0.172412	-0.113165	0.223388	-0.212553	-0.075443	0.238150	-0.258453	-0.104113	0.117205	-0.312451	-0.185770	0.137137	-0.298938	-0.138964	0.080344	-0.388605	-0.158087	0.052001	-0.157661	-0.098107	0.043326	-0.194463	-0.207723	0.049132	-0.185158
71	0.700000	-0.315646	0.944707	0.049137	-0.255824	0.988262	-0.130600	-0.159866	0.978843	-0.127017	-0.086847	0.941870	0.054985	-0.382166	0.871468	-0.008980	-0.393036	0.748932	0.022680	-0.376278	0.770830	0.085603	-0.367289	0.695520	0.119988	-0.383393	0.668217	0.064894	-0.344758	0.534454	0.121213	-0.232945	0.534904	0.109012	-0.370838	0.400903	0.135981	-0.339274	0.418985	0.190929	-0.338963	0.335084	0.219749	-0.371558	0.322994	0.161694	-0.328329	0.109875	0.232533	-0.254590	0.130474	0.259825	-0.283605	0.036918	0.205944	-0.309616	0.138919	0.415784	-0.364550	0.089755	0.383241	-0.255342	0.108603	0.411631	-0.038033	0.880314	-0.032468	-0.044034	0.675102	-0.057053	-0.067782	0.661299	-0.003331	-0.085587	0.585520	-0.033344	-0.061467	0.595905	-0.090956	-0.084393	0.510866	-0.105123	-0.190194	0.537500	-0.115519	-0.065861	0.313378	-0.216363	-0.104632	0.299671	-0.166946	-0.112885	0.224451	-0.208531	-0.075850	0.240231	-0.254355	-0.104164	0.119620	-0.310225	-0.185637	0.139380	-0.296012	-0.138943	0.085151	-0.387595	-0.158111	0.051530	-0.157508	-0.098111	0.043786	-0.194375	-0.207804	0.049266	-0.184817
72	0.710000	-0.315963	0.943520	0.062588	-0.257101	0.986567	-0.117462	-0.161046	0.977921	-0.114515	-0.087394	0.940870	0.067011	-0.382575	0.870506	0.004773	-0.393374	0.747469	0.036959	-0.376503	0.769943	0.098762	-0.367647	0.695400	0.135086	-0.382967	0.667317	0.080107	-0.343357	0.534006	0.136310	-0.232387	0.535920	0.124476	-0.369756	0.399941	0.149009	-0.337136	0.415746	0.204316	-0.336378	0.331795	0.230921	-0.370476	0.321053	0.172366	-0.327312	0.105854	0.235697	-0.253066	0.125448	0.263179	-0.282806	0.037934	0.207532	-0.308854	0.130023	0.420112	-0.364632	0.083165	0.386305	-0.254207	0.099864	0.415346	-0.040288	0.877912	-0.019732	-0.044760	0.674400	-0.046790	-0.068436	0.659595	0.007527	-0.085573	0.584471	-0.022897	-0.062204	0.595453	-0.080831	-0.084993	0.510449	-0.095442	-0.190952	0.536933	-0.104253	-0.066401	0.314980	-0.210624	-0.104575	0.300113	-0.161070	-0.112484	0.225458	-0.204159	-0.076256	0.242703	-0.250149	-0.104015	0.122873	-0.308033	-0.185562	0.141657	-0.292780	-0.138973	0.089779	-0.385619	-0.158209	0.051131	-0.157371	-0.098245	0.043749	-0.193840	-0.207804	0.049444	-0.184431
73	0.720000	-0.316206	0.942550	0.076173	-0.258146	0.985445	-0.104411	-0.162634	0.977018	-0.101967	-0.087399	0.939928	0.079170	-0.382784	0.869344	0.018992	-0.393329	0.746143	0.051248	-0.377061	0.769047	0.112844	-0.367527	0.694921	0.149776	-0.382404	0.666311	0.094949	-0.341524	0.533681	0.151104	-0.231713	0.533961	0.137924	-0.368246	0.398213	0.162046	-0.335305	0.412612	0.216870	-0.334581	0.327963	0.240940	-0.369253	0.318954	0.182636	-0.325074	0.102450	0.240218	-0.251189	0.121289	0.267211	-0.282380	0.039211	0.210171	-0.307249	0.122049	0.424446	-0.363573	0.076928	0.389793	-0.253333	0.090952	0.419486	-0.038996	0.878794	-0.009683	-0.045514	0.673877	-0.036221	-0.068342	0.658641	0.018534	-0.085610	0.583540	-0.011814	-0.062999	0.594748	-0.070106	-0.085751	0.509909	-0.085085	-0.191870	0.536040	-0.092006	-0.067092	0.316834	-0.204234	-0.104540	0.300309	-0.154697	-0.112430	0.226594	-0.199390	-0.077361	0.245999	-0.246378	-0.104008	0.126290	-0.305513	-0.185410	0.144250	-0.288922	-0.139132	0.094835	-0.383295	-0.158351	0.050575	-0.157037	-0.097982	0.044143	-0.193010	-0.207743	0.049629	-0.184028
74	0.730000	-0.316365	0.941647	0.090032	-0.259682	0.984418	-0.091166	-0.163993	0.976120	-0.088854	-0.087094	0.939405	0.091518	-0.382878	0.868193	0.033599	-0.392695	0.745223	0.065077	-0.376903	0.768317	0.127195	-0.366926	0.694045	0.163692	-0.381463	0.665431	0.108965	-0.339674	0.533348	0.165024	-0.231234	0.533539	0.149963	-0.367289	0.396894	0.173553	-0.333796	0.410355	0.228702	-0.332951	0.325206	0.251406	-0.367963	0.317077	0.192969	-0.324629	0.101113	0.246438	-0.249527	0.118744	0.273184	-0.281521	0.041450	0.213216	-0.304961	0.115794	0.430191	-0.361739	0.071999	0.393643	-0.252146	0.084164	0.423575	-0.039823	0.878079	0.002107	-0.046341	0.673338	-0.025047	-0.068261	0.657984	0.030174	-0.085358	0.582673	-0.000001	-0.063992	0.594155	-0.058719	-0.086502	0.509184	-0.073757	-0.192843	0.534963	-0.078629	-0.067624	0.318299	-0.196832	-0.104502	0.300528	-0.147560	-0.112325	0.226723	-0.193693	-0.077855	0.248665	-0.240614	-0.103760	0.129807	-0.302130	-0.185261	0.147667	-0.285178	-0.139356	0.100516	-0.380498	-0.158373	0.050158	-0.156692	-0.097993	0.044328	-0.192505	-0.207500	0.049850	-0.183689
75	0.740000	-0.316298	0.941090	0.104008	-0.261321	0.983847	-0.077903	-0.165495	0.975547	-0.075808	-0.086838	0.938840	0.104097	-0.383124	0.867327	0.048274	-0.391672	0.744580	0.079658	-0.375290	0.767365	0.140772	-0.365525	0.692852	0.176824	-0.380263	0.664771	0.122009	-0.339119	0.532667	0.177021	-0.230631	0.533422	0.161320	-0.366585	0.395769	0.185169	-0.332507	0.409210	0.239819	-0.331302	0.323833	0.261749	-0.367056	0.315958	0.204116	-0.324608	0.100904	0.252343	-0.248275	0.116673	0.279965	-0.281223	0.044267	0.216021	-0.302335	0.108639	0.436305	-0.359320	0.066431	0.397821	-0.250491	0.076598	0.427438	-0.040859	0.877494	0.014163	-0.047405	0.672959	-0.013345	-0.068150	0.657625	0.042360	-0.085386	0.582049	0.012698	-0.065092	0.593400	-0.046528	-0.087259	0.508358	-0.061241	-0.193936	0.533668	-0.064065	-0.068262	0.320507	-0.188590	-0.104426	0.300900	-0.139538	-0.112108	0.228257	-0.187544	-0.078245	0.251812	-0.234236	-0.103435	0.134439	-0.298877	-0.184886	0.151148	-0.280261	-0.139258	0.106767	-0.377038	-0.158185	0.049993	-0.156295	-0.097967	0.044555	-0.191963	-0.207010	0.050259	-0.183283
